<svg width="374" height="552" viewBox="0 0 374 552" fill="none" xmlns="http://www.w3.org/2000/svg">
<path d="M54.9525 6C89.867 24.4694 -12.5458 308.28 22.3691 326.75C57.2836 345.219 159.696 61.4089 194.611 79.8783C229.526 98.3483 127.113 382.159 161.946 400.585C196.862 419.056 299.274 135.245 334.106 153.671C369.02 172.141 266.609 455.951 301.441 474.377C336.356 492.849 438.771 209.037 473.682 227.505C508.598 245.975 406.187 529.786 441.098 548.257C476.014 566.723 578.425 282.914 613.341 301.384C648.257 319.854 545.846 603.665 580.761 622.136C615.673 640.602 718.084 356.793 753 375.263" stroke="#9246FF" stroke-width="80" stroke-miterlimit="10" stroke-linecap="round"/>
</svg>
