<svg width="823" height="467" viewBox="0 0 823 467" fill="none" xmlns="http://www.w3.org/2000/svg">
<path d="M88.6684 41C131.2 59.4694 6.44491 343.28 48.9768 361.75C91.5081 380.219 216.263 96.4089 258.795 114.878C301.326 133.348 176.571 417.159 219.003 435.585C261.536 454.056 386.291 170.245 428.722 188.671C471.252 207.141 346.499 490.951 388.93 509.377C431.463 527.849 556.22 244.037 598.747 262.505C641.28 280.975 516.527 564.786 559.055 583.257C601.587 601.723 726.341 317.914 768.874 336.384C811.407 354.854 686.653 638.665 729.186 657.136C771.714 675.602 896.467 391.793 939 410.263" stroke="#9246FF" stroke-width="80" stroke-miterlimit="10" stroke-linecap="round"/>
</svg>
