<svg width="554" height="525" viewBox="0 0 554 525" fill="none" xmlns="http://www.w3.org/2000/svg">
<path d="M92.079 40.2356C137.591 60.8519 4.09344 377.653 49.6058 398.27C95.1177 418.886 228.615 102.085 274.127 122.702C319.639 143.319 186.142 460.119 231.547 480.688C277.061 501.305 410.558 184.504 455.963 205.072C501.473 225.689 367.978 542.49 413.383 563.057C458.896 583.677 592.395 266.873 637.903 287.488C683.417 308.106 549.921 624.907 595.429 645.525C640.942 666.137 774.438 349.338 819.952 369.955C865.465 390.573 731.969 707.373 777.483 727.992C822.991 748.604 956.486 431.805 1002 452.422" stroke="#9246FF" stroke-width="80" stroke-miterlimit="10" stroke-linecap="round"/>
</svg>
