<svg width="21" height="20" viewBox="0 0 21 20" fill="none" xmlns="http://www.w3.org/2000/svg">
<g id="linkedin 1" clip-path="url(#clip0_41_60)">
<path id="icons8-linkedin-2" d="M4.56522 20H1.23386e-06V6.36364H4.56522V20ZM2.28261 4.54546C1.83115 4.54546 1.38983 4.41216 1.01446 4.16243C0.639087 3.9127 0.34652 3.55775 0.173754 3.14246C0.000989018 2.72718 -0.0442142 2.27021 0.0438607 1.82934C0.131936 1.38848 0.349333 0.983514 0.668562 0.665667C0.98779 0.347821 1.39451 0.131365 1.8373 0.0436708C2.28008 -0.0440228 2.73903 0.000984736 3.15613 0.173002C3.57322 0.345019 3.92971 0.636321 4.18053 1.01007C4.43135 1.38382 4.56522 1.82323 4.56522 2.27273C4.56522 2.87549 4.32473 3.45357 3.89666 3.87979C3.46859 4.30601 2.888 4.54546 2.28261 4.54546ZM21 20H16.611V13.3636C16.611 11.7809 16.5809 9.74546 14.3284 9.74546C12.0458 9.74546 11.6915 11.4727 11.6915 13.2491V20H7.30435V6.35364H11.5171V8.21818H11.5765C12.0088 7.51534 12.6221 6.9404 13.3527 6.55294C14.0833 6.16548 14.9047 5.9796 15.7317 6.01455C20.1783 6.01455 21 8.84091 21 12.5155V20Z" fill="#190701"/>
</g>
<defs>
<clipPath id="clip0_41_60">
<rect width="21" height="20" fill="white"/>
</clipPath>
</defs>
</svg>
