<svg width="24" height="24" viewBox="0 0 24 24" fill="none" xmlns="http://www.w3.org/2000/svg">
<g id="instagram 1" clip-path="url(#clip0_41_51)">
<g id="facebook">
<path id="Vector" d="M15.3492 23.1614H8.65118C3.07086 23.1614 0.837891 20.9301 0.837891 15.3473V8.64923C0.837891 3.0689 3.07086 0.835938 8.65202 0.835938H15.3501C20.9321 0.835938 23.1634 3.0689 23.1634 8.65007V15.3481C23.1634 20.9301 20.9321 23.1614 15.3492 23.1614Z" stroke="#190701" stroke-width="2" stroke-linecap="round" stroke-linejoin="round"/>
<g id="Rectangle 542">
<path id="Vector_2" d="M17.0217 12.0001C17.0217 9.22568 14.7726 6.97656 11.9982 6.97656C9.22373 6.97656 6.97461 9.22568 6.97461 12.0001C6.97461 14.7745 9.22373 17.0237 11.9982 17.0237C14.7726 17.0237 17.0217 14.7745 17.0217 12.0001Z" stroke="#190701" stroke-width="2"/>
</g>
<g id="Rectangle 543">
<path id="Vector_3" d="M19.5306 5.72332C19.5306 5.49211 19.3432 5.30469 19.112 5.30469C18.8808 5.30469 18.6934 5.49211 18.6934 5.72332C18.6934 5.95452 18.8808 6.14195 19.112 6.14195C19.3432 6.14195 19.5306 5.95452 19.5306 5.72332Z" stroke="#190701" stroke-width="2"/>
</g>
</g>
</g>
<defs>
<clipPath id="clip0_41_51">
<rect width="24" height="24" fill="white"/>
</clipPath>
</defs>
</svg>
