<svg width="121" height="20" viewBox="0 0 121 20" fill="none" xmlns="http://www.w3.org/2000/svg">
<path d="M28.6749 6.43542C28.6215 6.1902 28.544 5.95085 28.4435 5.7209C28.3216 5.45453 28.1509 5.21332 27.9403 5.00973C27.6946 4.78101 27.4108 4.59708 27.1017 4.46628C26.7134 4.30827 26.2964 4.23286 25.8773 4.24488C25.5342 4.2394 25.193 4.2974 24.871 4.41596C24.5873 4.5193 24.324 4.67143 24.0927 4.86548C23.8819 5.05326 23.7108 5.28139 23.5896 5.53639C23.4721 5.77793 23.4102 6.04271 23.4084 6.3113C23.4011 6.73173 23.5465 7.14053 23.8177 7.46193C24.1514 7.81835 24.5937 8.05427 25.0756 8.13284L27.1319 8.55552C28.2324 8.72113 29.2481 9.24318 30.0234 10.0416C30.671 10.7578 31.0233 11.6927 31.0096 12.6582C31.0078 13.2121 30.8936 13.7598 30.6742 14.2684C30.4517 14.7948 30.1201 15.2682 29.7014 15.6572C29.2422 16.0776 28.7056 16.4046 28.1214 16.6199C27.4293 16.8756 26.6955 16.9996 25.9578 16.9856C25.1575 17.0021 24.3611 16.8689 23.6097 16.5931C22.9897 16.3621 22.4202 16.0135 21.9324 15.5666C21.4974 15.1652 21.1443 14.6833 20.8926 14.1476C20.6614 13.6577 20.5129 13.1329 20.4531 12.5944L22.704 11.9537C22.7426 12.3253 22.8388 12.6886 22.9891 13.0305C23.1353 13.3732 23.3512 13.6816 23.6231 13.9363C23.9152 14.2096 24.2568 14.4248 24.6294 14.5703C25.0566 14.7377 25.5125 14.8197 25.9712 14.8118C26.6651 14.8615 27.3539 14.6616 27.9135 14.2483C28.1241 14.0791 28.2939 13.8645 28.4101 13.6205C28.5262 13.3766 28.5858 13.1095 28.5844 12.8393C28.5865 12.6139 28.544 12.3902 28.4593 12.1812C28.3747 11.9723 28.2496 11.7821 28.0913 11.6216C27.6988 11.2485 27.2054 10.9989 26.6723 10.9037L24.6596 10.4844C23.6643 10.3059 22.747 9.82848 22.0297 9.11574C21.6943 8.76581 21.4324 8.35219 21.2595 7.8993C21.0867 7.44642 21.0064 6.96348 21.0234 6.47903C21.0185 5.89063 21.1481 5.30889 21.4024 4.77826C21.6569 4.25031 22.0138 3.77823 22.4524 3.38946C22.9041 2.98772 23.4246 2.67068 23.9887 2.45353C24.5906 2.22467 25.2301 2.11087 25.8739 2.11807C26.6063 2.09758 27.3361 2.21127 28.0275 2.45353C28.5627 2.6565 29.057 2.95422 29.4867 3.33243C29.8639 3.66414 30.1756 4.0635 30.4058 4.50989C30.6094 4.90283 30.7627 5.31984 30.862 5.75109L28.6749 6.43542Z" fill="#190701"/>
<path d="M37.7676 6.57749C38.4648 6.56952 39.1563 6.70304 39.8004 6.96997C40.4077 7.22137 40.9583 7.59237 41.4193 8.0609C41.8803 8.52943 42.2424 9.08592 42.484 9.69725C42.7444 10.357 42.8742 11.0611 42.8664 11.7704C42.8739 12.4818 42.7441 13.188 42.484 13.8502C42.2454 14.4649 41.8846 15.0248 41.4233 15.4959C40.962 15.967 40.4099 16.3395 39.8004 16.5909C38.4992 17.1143 37.046 17.1143 35.7448 16.5909C35.1397 16.342 34.5918 15.9721 34.1347 15.504C33.6765 15.0281 33.3173 14.466 33.078 13.8502C32.8179 13.188 32.6881 12.4818 32.6956 11.7704C32.6891 11.0645 32.8189 10.364 33.078 9.70731C33.3198 9.0968 33.6788 8.53953 34.1347 8.06692C34.5918 7.59882 35.1397 7.22897 35.7448 6.98004C36.3853 6.71152 37.0732 6.57461 37.7676 6.57749ZM37.7676 14.8901C38.1229 14.8915 38.4751 14.8231 38.8041 14.6889C39.1334 14.5527 39.4313 14.3507 39.6796 14.0951C39.9461 13.8149 40.1517 13.4825 40.2834 13.1189C40.4376 12.6887 40.5126 12.2341 40.5048 11.7771C40.5148 11.32 40.4397 10.865 40.2834 10.4353C40.15 10.0755 39.9446 9.7467 39.6796 9.46914C39.4335 9.21343 39.1348 9.01426 38.8041 8.88544C38.1366 8.63047 37.3986 8.63047 36.7311 8.88544C36.4024 9.0126 36.1066 9.2121 35.8656 9.46914C35.6048 9.74994 35.3999 10.0778 35.2618 10.4353C35.0991 10.8635 35.0205 11.3191 35.0303 11.7771C35.0224 12.2349 35.1009 12.6902 35.2618 13.1189C35.3988 13.4799 35.6038 13.8113 35.8656 14.0951C36.109 14.3518 36.4039 14.5542 36.7311 14.6889C37.0601 14.8231 37.4122 14.8915 37.7676 14.8901Z" fill="#190701"/>
<path d="M49.5435 8.73426C49.1913 8.7323 48.8423 8.80073 48.517 8.93553C48.195 9.06969 47.9039 9.26834 47.6616 9.51923C47.4024 9.79162 47.2005 10.1133 47.0679 10.4652C46.9128 10.8836 46.8377 11.3274 46.8465 11.7735C46.8383 12.2229 46.9134 12.6698 47.0679 13.0919C47.1987 13.4546 47.4006 13.7876 47.6616 14.0714C47.9066 14.3308 48.2055 14.5335 48.5371 14.6652C48.8699 14.7988 49.2252 14.8671 49.5837 14.8664C49.9279 14.8743 50.2702 14.8127 50.5901 14.6853C50.8565 14.5784 51.1018 14.4251 51.3146 14.2324C51.5003 14.0623 51.6597 13.8656 51.7876 13.6487C51.899 13.4623 51.9868 13.2629 52.0493 13.055L54.1022 13.7997C53.9745 14.2041 53.7916 14.5891 53.5588 14.9436C53.3084 15.332 52.9995 15.6794 52.643 15.9734C52.2488 16.2911 51.8029 16.5385 51.3247 16.7047C50.1035 17.1153 48.7759 17.076 47.5811 16.594C46.9697 16.3449 46.4168 15.9714 45.9576 15.4971C45.5021 15.0183 45.1403 14.4585 44.8908 13.8466C44.6241 13.1884 44.4907 12.4837 44.4984 11.7735C44.4911 11.061 44.621 10.3538 44.8808 9.69031C45.1242 9.07092 45.4905 8.50721 45.9576 8.03315C46.4108 7.57218 46.9513 7.20611 47.5476 6.95633C48.7378 6.48344 50.057 6.44778 51.271 6.85569C51.7554 7.02559 52.2087 7.27377 52.6128 7.59034C52.9757 7.87747 53.2827 8.22883 53.5185 8.62691C53.7365 8.99241 53.9057 9.38488 54.0217 9.7943L51.9285 10.5591C51.8643 10.3337 51.7742 10.1165 51.6602 9.91172C51.5436 9.68707 51.3867 9.4858 51.1972 9.31795C50.9918 9.13733 50.7569 8.99324 50.5029 8.89192C50.1953 8.78139 49.8702 8.72796 49.5435 8.73426Z" fill="#190701"/>
<path d="M55.8227 3.44003C55.8186 3.23776 55.8557 3.03677 55.9319 2.84933C56.008 2.66189 56.1215 2.49192 56.2655 2.34979C56.4042 2.20804 56.5703 2.09599 56.7537 2.02044C56.9371 1.94489 57.1339 1.90743 57.3322 1.91034C57.534 1.90717 57.7343 1.94457 57.9213 2.02032C58.1083 2.09608 58.2782 2.20863 58.4209 2.35131C58.5636 2.494 58.6761 2.66389 58.7519 2.85091C58.8276 3.03794 58.865 3.23828 58.8618 3.44003C58.8667 3.64041 58.8299 3.83961 58.7536 4.02499C58.6774 4.21036 58.5635 4.37786 58.419 4.51685C58.2762 4.6583 58.1064 4.76951 57.9197 4.84386C57.7329 4.91821 57.5331 4.95417 57.3322 4.9496C57.1345 4.9528 56.9381 4.91613 56.7548 4.84178C56.5715 4.76743 56.4051 4.65692 56.2655 4.51685C56.1211 4.37786 56.0071 4.21036 55.9309 4.02499C55.8547 3.83961 55.8178 3.64041 55.8227 3.44003ZM56.185 16.6839V6.87848H58.4996V16.6839H56.185Z" fill="#190701"/>
<path d="M60.7916 14.0258C60.7832 13.6245 60.8622 13.2262 61.0231 12.8584C61.1729 12.5293 61.3848 12.232 61.647 11.9829C61.9187 11.7268 62.2362 11.5243 62.5829 11.3858C62.958 11.2299 63.3497 11.1174 63.7503 11.0503L66.2661 10.6679C66.482 10.6586 66.6866 10.5688 66.8397 10.4163C66.941 10.2874 66.9943 10.1273 66.9907 9.96343C66.9942 9.76622 66.9566 9.57044 66.8804 9.38853C66.8042 9.20662 66.6909 9.04255 66.5479 8.90674C66.1527 8.58427 65.6471 8.42899 65.139 8.474C64.8784 8.45743 64.6172 8.49442 64.3714 8.58269C64.1256 8.67096 63.9005 8.80865 63.71 8.98725C63.3759 9.3265 63.1696 9.77103 63.1263 10.2452L60.9929 9.76216C61.0417 9.34165 61.1752 8.9354 61.3854 8.56793C61.603 8.17859 61.8894 7.83193 62.2307 7.54478C62.6039 7.2358 63.0302 6.99711 63.4886 6.84032C64.0164 6.65968 64.5712 6.57117 65.129 6.57866C65.7823 6.56336 66.4331 6.66445 67.0511 6.87722C67.5308 7.05537 67.9666 7.33451 68.3291 7.69573C68.6547 8.02597 68.9022 8.42484 69.0537 8.86313C69.2086 9.30969 69.2869 9.77925 69.2851 10.2519V15.1094C69.2808 15.469 69.2976 15.8285 69.3355 16.1862C69.369 16.4646 69.3925 16.629 69.4059 16.6827H67.2322C67.203 16.5727 67.1828 16.4605 67.1718 16.3472C67.1405 16.0486 67.1271 15.7484 67.1316 15.4482C66.8087 15.9491 66.3598 16.3562 65.8299 16.6288C65.3 16.9015 64.7078 17.0299 64.1126 17.0014C63.6392 17.007 63.1691 16.9228 62.7272 16.7531C62.34 16.5996 61.9867 16.3716 61.6873 16.0822C61.4018 15.8156 61.1736 15.4937 61.0164 15.1362C60.866 14.7855 60.7895 14.4075 60.7916 14.0258ZM64.5553 15.153C64.8686 15.1542 65.1805 15.1102 65.4812 15.0221C65.7676 14.9403 66.0322 14.796 66.2561 14.5995C66.491 14.3855 66.6735 14.1204 66.7894 13.8246C66.9344 13.4389 67.0028 13.0287 66.9907 12.6169V12.1741L64.4346 12.5565C64.0958 12.6128 63.7771 12.7549 63.5087 12.9691C63.3785 13.0818 63.2762 13.2232 63.2099 13.3821C63.1435 13.541 63.1149 13.7131 63.1263 13.8849C63.1255 14.0491 63.1571 14.2119 63.2192 14.3639C63.2814 14.5158 63.3729 14.654 63.4886 14.7706C63.63 14.905 63.7979 15.0085 63.9816 15.0743C64.1653 15.1402 64.3607 15.167 64.5553 15.153Z" fill="#190701"/>
<path d="M72.1211 16.6807V2.1084H74.4692V16.6807H72.1211Z" fill="#190701"/>
<path d="M77.3359 16.683V6.87757H79.57V8.12883C79.8563 7.62818 80.2929 7.23032 80.8179 6.99162C81.3316 6.73855 81.8957 6.60441 82.4683 6.59914C83.0788 6.58888 83.6817 6.73557 84.2193 7.02517C84.7458 7.31721 85.1627 7.773 85.4068 8.32339C85.7288 7.74658 86.2159 7.27927 86.8056 6.98156C87.3636 6.72338 87.9721 6.59275 88.5868 6.59914C89.0257 6.59847 89.4615 6.67336 89.8749 6.82054C90.2866 6.96468 90.6637 7.1932 90.9819 7.49146C91.3202 7.81726 91.5844 8.21195 91.7568 8.64879C91.9633 9.18328 92.0625 9.75324 92.0486 10.3261V16.6998H89.7944V10.7152C89.8141 10.1976 89.6541 9.68917 89.3416 9.27609C89.1633 9.07464 88.9402 8.9178 88.6903 8.81818C88.4403 8.71855 88.1705 8.67892 87.9025 8.70246C87.6246 8.69128 87.3477 8.74208 87.0918 8.85115C86.836 8.96023 86.6076 9.12486 86.4232 9.33312C86.0533 9.7608 85.856 10.3109 85.8697 10.8762V16.683H83.5753V10.7152C83.5915 10.2028 83.4356 9.69966 83.1325 9.28616C82.955 9.08036 82.7308 8.91999 82.4787 8.81846C82.2266 8.71692 81.9539 8.67715 81.6833 8.70246C81.4052 8.68863 81.1274 8.7365 80.8699 8.84263C80.6124 8.94876 80.3816 9.11053 80.1939 9.31635C79.8231 9.7495 79.6291 10.3064 79.6505 10.8762V16.683H77.3359Z" fill="#190701"/>
<path d="M94.4847 3.44003C94.4811 3.23752 94.5187 3.03639 94.5954 2.84893C94.6721 2.66147 94.7863 2.49163 94.9309 2.34979C95.0696 2.20804 95.2357 2.09599 95.4191 2.02044C95.6025 1.94489 95.7993 1.90743 95.9976 1.91034C96.1993 1.90717 96.3997 1.94457 96.5867 2.02032C96.7737 2.09608 96.9436 2.20863 97.0863 2.35131C97.229 2.494 97.3415 2.66389 97.4172 2.85091C97.493 3.03794 97.5304 3.23828 97.5272 3.44003C97.5321 3.64041 97.4952 3.83961 97.419 4.02499C97.3428 4.21036 97.2289 4.37786 97.0844 4.51685C96.9416 4.6583 96.7718 4.76951 96.5851 4.84386C96.3983 4.91821 96.1985 4.95417 95.9976 4.9496C95.7998 4.9528 95.6035 4.91613 95.4202 4.84178C95.2369 4.76743 95.0705 4.65692 94.9309 4.51685C94.7858 4.37816 94.6713 4.21079 94.5945 4.0254C94.5177 3.84001 94.4803 3.64066 94.4847 3.44003ZM94.847 16.6839V6.87848H97.1616V16.6839H94.847Z" fill="#190701"/>
<path d="M102.395 16.683H100.047V6.87753H102.321V8.18917C102.608 7.65871 103.056 7.23252 103.599 6.97146C104.097 6.73838 104.638 6.61173 105.187 6.5996C105.736 6.58746 106.282 6.69013 106.789 6.90101C107.215 7.0895 107.591 7.37565 107.886 7.7363C108.181 8.10339 108.403 8.52357 108.54 8.97414C108.691 9.46307 108.766 9.97216 108.762 10.4837V16.683H106.414V10.8863C106.442 10.3423 106.298 9.80332 106.001 9.3465C105.69 8.91712 105.166 8.70242 104.428 8.70242C104.139 8.68324 103.85 8.73425 103.586 8.85109C103.321 8.96793 103.089 9.14712 102.908 9.37334C102.558 9.84722 102.378 10.4249 102.395 11.0137V16.683Z" fill="#190701"/>
<path d="M120.761 14.8894C120.761 15.3366 120.774 15.7258 120.801 16.0568C120.828 16.3877 120.848 16.5957 120.862 16.6807H118.628C118.59 16.4937 118.567 16.3042 118.557 16.1138C118.537 15.8488 118.527 15.6106 118.527 15.4127C118.267 15.8598 117.892 16.2284 117.44 16.4794C116.894 16.7858 116.275 16.9388 115.649 16.9222C114.984 16.9318 114.325 16.7979 113.717 16.5298C113.152 16.2765 112.648 15.906 112.237 15.4429C111.817 14.9617 111.493 14.405 111.281 13.8025C111.051 13.1429 110.937 12.4481 110.946 11.7495C110.94 11.074 111.053 10.4028 111.281 9.76692C111.495 9.16545 111.819 8.60915 112.237 8.12652C112.656 7.64582 113.175 7.26188 113.757 7.00125C114.339 6.74061 114.971 6.60949 115.609 6.61696C115.988 6.61099 116.367 6.65497 116.736 6.74779C117.028 6.82082 117.309 6.9337 117.571 7.08325C117.784 7.20483 117.977 7.35747 118.144 7.53612C118.278 7.68093 118.391 7.84349 118.48 8.01918V2.1084H120.761V14.8894ZM113.274 11.7495C113.234 12.5654 113.487 13.3687 113.988 14.0138C114.351 14.4216 114.836 14.7023 115.37 14.8146C115.904 14.9269 116.46 14.8649 116.957 14.6378C117.276 14.486 117.558 14.2661 117.782 13.9937C118.02 13.7011 118.201 13.3666 118.316 13.0074C118.448 12.5945 118.512 12.1629 118.507 11.7293C118.552 10.9251 118.297 10.1328 117.792 9.50526C117.563 9.24178 117.278 9.03279 116.957 8.89351C116.637 8.75424 116.29 8.68818 115.941 8.70016C115.586 8.69227 115.233 8.76101 114.907 8.90168C114.581 9.04236 114.29 9.25166 114.052 9.51532C113.519 10.1339 113.244 10.9338 113.284 11.7495H113.274Z" fill="#190701"/>
<path d="M13.3508 6.65525C13.355 7.83265 13.0471 8.99014 12.4585 10.0098C11.8722 8.99491 11.0291 8.15215 10.014 7.56622C8.99887 6.9803 7.84744 6.67184 6.67537 6.67184C5.50329 6.67184 4.35186 6.9803 3.33674 7.56622C2.32161 8.15215 1.47856 8.99491 0.892259 10.0098C0.381366 9.12364 0.0809561 8.13189 0.0142224 7.11115C-0.0525114 6.0904 0.116216 5.06797 0.507379 4.1228C0.898541 3.17763 1.50167 2.33499 2.27021 1.65995C3.03875 0.98491 3.95214 0.495522 4.93985 0.22957C5.92756 -0.036382 6.96318 -0.0717831 7.96674 0.1261C8.97031 0.323982 9.91498 0.749856 10.7278 1.37084C11.5407 1.99182 12.1999 2.79131 12.6547 3.70756C13.1095 4.62382 13.3476 5.63234 13.3508 6.65525Z" fill="#FF7F57"/>
<path d="M12.4588 9.99083C11.8718 11.0049 11.0285 11.8468 10.0135 12.4321C8.99845 13.0174 7.84736 13.3255 6.67569 13.3255C5.50401 13.3255 4.35292 13.0174 3.33789 12.4321C2.32286 11.8468 1.47956 11.0049 0.892578 9.99083C1.47888 8.9759 2.32193 8.13314 3.33706 7.54721C4.35218 6.96129 5.50361 6.65283 6.67569 6.65283C7.84776 6.65283 8.99919 6.96129 10.0143 7.54721C11.0294 8.13314 11.8725 8.9759 12.4588 9.99083Z" fill="#6D57DD"/>
<path d="M13.3508 13.3247C13.3508 14.3485 13.1153 15.3585 12.6625 16.2767C12.2098 17.195 11.5519 17.9968 10.7398 18.6201C9.92771 19.2434 8.98312 19.6716 7.97909 19.8716C6.97506 20.0715 5.9385 20.0378 4.94956 19.7732C3.96063 19.5085 3.04581 19.0199 2.27587 18.3451C1.50593 17.6704 0.901489 16.8276 0.509292 15.8819C0.117095 14.9363 -0.05235 13.9131 0.0140618 12.8914C0.0804736 11.8698 0.380962 10.8772 0.89229 9.99023C1.47927 11.0043 2.32257 11.8462 3.3376 12.4315C4.35264 13.0168 5.50372 13.3249 6.6754 13.3249C7.84708 13.3249 8.99816 13.0168 10.0132 12.4315C11.0282 11.8462 11.8715 11.0043 12.4585 9.99023C13.0446 11.0037 13.3524 12.154 13.3508 13.3247Z" fill="#4BABF5"/>
</svg>
